<svg xmlns="http://www.w3.org/2000/svg" width="512" height="512" viewBox="0 0 135.467 135.467" id="prayer-mat">
  <path d="M30.553 0a2.882 2.882 0 0 0-2.883 2.88v9.033a2.882 2.882 0 0 0 0 .096 2.883 2.883 0 0 0 0 .096v111.068a2.883 2.883 0 0 0 .01.191 2.882 2.882 0 0 0-.01.19v9.03a2.882 2.882 0 0 0 2.883 2.883 2.882 2.882 0 0 0 2.883-2.883v-6.528h9.107v6.528a2.882 2.882 0 0 0 2.883 2.883 2.882 2.882 0 0 0 2.881-2.883v-6.528h9.109v6.528a2.882 2.882 0 0 0 2.88 2.883 2.882 2.882 0 0 0 2.884-2.883v-6.528h9.107v6.528a2.882 2.882 0 0 0 2.883 2.883 2.882 2.882 0 0 0 2.883-2.883v-6.528h9.107v6.528a2.882 2.882 0 0 0 2.883 2.883 2.882 2.882 0 0 0 2.88-2.883v-6.528h9.11v6.528a2.882 2.882 0 0 0 2.88 2.883 2.882 2.882 0 0 0 2.884-2.883v-9.03a2.882 2.882 0 0 0-.011-.19 2.883 2.883 0 0 0 .01-.191V12.105a2.883 2.883 0 0 0 0-.098 2.882 2.882 0 0 0 0-.094V2.88A2.882 2.882 0 0 0 104.914 0a2.882 2.882 0 0 0-2.88 2.88v6.344h-9.11V2.88A2.882 2.882 0 0 0 90.044 0a2.882 2.882 0 0 0-2.883 2.88v6.344h-9.107V2.88A2.882 2.882 0 0 0 75.17 0a2.882 2.882 0 0 0-2.883 2.88v6.344H63.18V2.88A2.882 2.882 0 0 0 60.297 0a2.882 2.882 0 0 0-2.881 2.88v6.344h-9.109V2.88A2.882 2.882 0 0 0 45.426 0a2.882 2.882 0 0 0-2.883 2.88v6.344h-9.107V2.88A2.882 2.882 0 0 0 30.553 0Zm2.881 14.988h68.596v105.304H33.434Zm34.257 13.019a2.883 2.883 0 0 0-.017 0 2.883 2.883 0 0 0-1.783.664c-4.015 3.335-8.001 5.01-11.564 6.556-3.563 1.545-7.178 2.984-8.835 6.76a2.883 2.883 0 0 0-.242 1.16v61.242a2.883 2.883 0 0 0 2.883 2.883h39.202a2.883 2.883 0 0 0 2.883-2.883V42.982a2.883 2.883 0 0 0-.294-1.268c-1.795-3.66-5.384-4.996-8.928-6.513-3.544-1.517-7.477-3.186-11.398-6.51a2.883 2.883 0 0 0-1.907-.684Zm.029 6.33c4.012 2.973 7.961 4.86 11.007 6.164 3.25 1.391 5.004 2.416 5.725 3.482v57.525h-33.44V44.065c.66-1.115 2.337-2.131 5.606-3.548 3.035-1.317 7.022-3.205 11.102-6.18z" color="#000" font-family="sans-serif" font-weight="400" overflow="visible" style="line-height:normal;font-variant-ligatures:normal;font-variant-position:normal;font-variant-caps:normal;font-variant-numeric:normal;font-variant-alternates:normal;font-variant-east-asian:normal;font-feature-settings:normal;font-variation-settings:normal;text-indent:0;text-align:start;text-decoration-line:none;text-decoration-style:solid;text-decoration-color:#000;text-transform:none;text-orientation:mixed;shape-padding:0;shape-margin:0;inline-size:0;isolation:auto;mix-blend-mode:normal"></path>
</svg>
