<svg width="155" height="40" viewBox="0 0 155 40" fill="none" xmlns="http://www.w3.org/2000/svg">
    <rect width="155" height="40" rx="7" fill="black"/>
    <path d="M24.7689 20.3008C24.7796 19.4662 25.0013 18.6478 25.4134 17.9218C25.8254 17.1959 26.4143 16.5859 27.1254 16.1488C26.6737 15.5036 26.0777 14.9727 25.3849 14.5981C24.6921 14.2236 23.9215 14.0157 23.1343 13.9911C21.455 13.8148 19.8271 14.9959 18.9714 14.9959C18.0991 14.9959 16.7816 14.0086 15.3629 14.0378C14.4452 14.0674 13.5509 14.3343 12.767 14.8123C11.9831 15.2904 11.3364 15.9633 10.89 16.7656C8.95595 20.1141 10.3985 25.0351 12.2511 27.7417C13.178 29.0671 14.2613 30.5475 15.6788 30.495C17.0658 30.4375 17.5839 29.6105 19.2582 29.6105C20.9169 29.6105 21.403 30.495 22.8492 30.4616C24.3376 30.4375 25.2753 29.1304 26.1697 27.7925C26.8357 26.8481 27.3481 25.8044 27.6881 24.7C26.8234 24.3343 26.0855 23.7221 25.5664 22.9398C25.0472 22.1575 24.7699 21.2397 24.7689 20.3008V20.3008Z" fill="white"/>
    <path d="M22.0372 12.2108C22.8488 11.2366 23.2486 9.98445 23.1518 8.72021C21.9119 8.85044 20.7667 9.44299 19.9442 10.3798C19.542 10.8375 19.234 11.3699 19.0378 11.9467C18.8415 12.5235 18.7609 13.1333 18.8005 13.7412C19.4206 13.7476 20.0341 13.6132 20.5948 13.3481C21.1554 13.083 21.6486 12.6942 22.0372 12.2108Z" fill="white"/>
    <path d="M42.3026 27.1397H37.5692L36.4325 30.4961H34.4276L38.911 18.0781H40.994L45.4774 30.4961H43.4383L42.3026 27.1397ZM38.0594 25.5908H41.8114L39.9618 20.1436H39.9101L38.0594 25.5908Z" fill="white"/>
    <path d="M55.16 25.9699C55.16 28.7834 53.6542 30.591 51.3817 30.591C50.8061 30.6211 50.2336 30.4885 49.7298 30.2084C49.226 29.9283 48.8113 29.5119 48.5331 29.007H48.4901V33.4914H46.6317V21.4426H48.4305V22.9485H48.4647C48.7557 22.446 49.1774 22.0318 49.685 21.7499C50.1927 21.4681 50.7672 21.3291 51.3475 21.3479C53.6453 21.3479 55.16 23.1643 55.16 25.9699ZM53.2499 25.9699C53.2499 24.1369 52.3026 22.9319 50.8573 22.9319C49.4374 22.9319 48.4823 24.1623 48.4823 25.9699C48.4823 27.7942 49.4374 29.0158 50.8573 29.0158C52.3026 29.0158 53.2499 27.8196 53.2499 25.9699Z" fill="white"/>
    <path d="M65.1249 25.9699C65.1249 28.7834 63.619 30.591 61.3466 30.591C60.7709 30.6211 60.1984 30.4885 59.6946 30.2084C59.1908 29.9283 58.7761 29.5119 58.4979 29.007H58.4549V33.4914H56.5965V21.4426H58.3953V22.9484H58.4295C58.7205 22.446 59.1422 22.0318 59.6498 21.7499C60.1575 21.4681 60.732 21.3291 61.3123 21.3479C63.6102 21.3479 65.1249 23.1643 65.1249 25.9699ZM63.2147 25.9699C63.2147 24.1369 62.2674 22.9318 60.8221 22.9318C59.4022 22.9318 58.4471 24.1623 58.4471 25.9699C58.4471 27.7942 59.4022 29.0158 60.8221 29.0158C62.2675 29.0158 63.2147 27.8195 63.2147 25.9699H63.2147Z" fill="white"/>
    <path d="M71.7108 27.0362C71.8485 28.2676 73.0448 29.0762 74.6796 29.0762C76.246 29.0762 77.3729 28.2676 77.3729 27.1572C77.3729 26.1934 76.6932 25.6162 75.0839 25.2207L73.4745 24.833C71.1942 24.2822 70.1356 23.2158 70.1356 21.4854C70.1356 19.3428 72.0028 17.8711 74.6542 17.8711C77.2782 17.8711 79.077 19.3428 79.1376 21.4854H77.2616C77.1493 20.2461 76.1249 19.4981 74.6278 19.4981C73.1307 19.4981 72.1063 20.2549 72.1063 21.3565C72.1063 22.2344 72.7606 22.751 74.3612 23.1465L75.7293 23.4824C78.2772 24.0849 79.3358 25.1084 79.3358 26.9248C79.3358 29.248 77.4852 30.7031 74.5418 30.7031C71.7879 30.7031 69.9286 29.2822 69.8084 27.0361L71.7108 27.0362Z" fill="white"/>
    <path d="M83.3465 19.2998V21.4424H85.0682V22.9141H83.3465V27.9053C83.3465 28.6807 83.6913 29.042 84.4481 29.042C84.6525 29.0384 84.8566 29.0241 85.0594 28.999V30.4619C84.7192 30.5255 84.3733 30.5543 84.0272 30.5478C82.1942 30.5478 81.4794 29.8593 81.4794 28.1035V22.9141H80.163V21.4424H81.4793V19.2998H83.3465Z" fill="white"/>
    <path d="M86.0653 25.9697C86.0653 23.1211 87.7431 21.3311 90.3593 21.3311C92.9843 21.3311 94.6542 23.1211 94.6542 25.9697C94.6542 28.8262 92.9931 30.6084 90.3593 30.6084C87.7264 30.6084 86.0653 28.8262 86.0653 25.9697ZM92.7606 25.9697C92.7606 24.0156 91.8651 22.8623 90.3593 22.8623C88.8534 22.8623 87.9589 24.0244 87.9589 25.9697C87.9589 27.9316 88.8534 29.0762 90.3593 29.0762C91.8651 29.0762 92.7606 27.9316 92.7606 25.9697H92.7606Z" fill="white"/>
    <path d="M96.1864 21.4425H97.9589V22.9835H98.0019C98.1218 22.5022 98.4037 22.0769 98.8003 21.779C99.1969 21.4811 99.684 21.3288 100.18 21.3478C100.394 21.347 100.607 21.3703 100.816 21.4171V23.1554C100.546 23.0728 100.264 23.0348 99.9813 23.0431C99.7113 23.0321 99.4422 23.0797 99.1924 23.1826C98.9425 23.2855 98.7179 23.4412 98.5339 23.6391C98.3499 23.837 98.211 24.0724 98.1265 24.3291C98.0421 24.5857 98.0142 24.8576 98.0448 25.1261V30.4962H96.1864L96.1864 21.4425Z" fill="white"/>
    <path d="M109.385 27.8369C109.135 29.4805 107.534 30.6084 105.486 30.6084C102.852 30.6084 101.218 28.8437 101.218 26.0127C101.218 23.1729 102.861 21.3311 105.408 21.3311C107.913 21.3311 109.488 23.0518 109.488 25.7969V26.4336H103.094V26.5459C103.064 26.8791 103.106 27.2148 103.216 27.5306C103.326 27.8464 103.502 28.1352 103.733 28.3778C103.963 28.6203 104.242 28.8111 104.552 28.9374C104.862 29.0637 105.195 29.1226 105.529 29.1103C105.968 29.1515 106.409 29.0498 106.786 28.8203C107.162 28.5909 107.455 28.246 107.62 27.8369L109.385 27.8369ZM103.102 25.1348H107.629C107.645 24.8352 107.6 24.5354 107.495 24.2541C107.391 23.9729 107.229 23.7164 107.02 23.5006C106.812 23.2849 106.561 23.1145 106.284 23.0003C106.006 22.8861 105.708 22.8305 105.408 22.8369C105.105 22.8351 104.805 22.8933 104.525 23.008C104.245 23.1227 103.991 23.2918 103.776 23.5054C103.562 23.7191 103.392 23.973 103.276 24.2527C103.161 24.5323 103.102 24.8321 103.102 25.1348V25.1348Z" fill="white"/>
    <path d="M37.8262 8.73089C38.2158 8.70293 38.6067 8.76179 38.9709 8.90323C39.335 9.04466 39.6632 9.26514 39.9317 9.54876C40.2003 9.83239 40.4026 10.1721 40.524 10.5434C40.6454 10.9146 40.6829 11.3082 40.6338 11.6957C40.6338 13.602 39.6035 14.6977 37.8262 14.6977H35.6709V8.73089H37.8262ZM36.5976 13.8539H37.7226C38.0011 13.8705 38.2797 13.8249 38.5382 13.7203C38.7967 13.6157 39.0287 13.4547 39.2172 13.2491C39.4057 13.0436 39.546 12.7986 39.6278 12.532C39.7097 12.2653 39.7311 11.9838 39.6904 11.7079C39.7281 11.4331 39.7046 11.1533 39.6215 10.8886C39.5383 10.624 39.3977 10.381 39.2096 10.177C39.0216 9.9731 38.7907 9.81329 38.5337 9.70905C38.2766 9.60481 37.9996 9.55873 37.7226 9.5741H36.5976V13.8539Z" fill="white"/>
    <path d="M41.6809 12.4443C41.6526 12.1484 41.6865 11.8498 41.7803 11.5677C41.8742 11.2857 42.0259 11.0263 42.2259 10.8063C42.4258 10.5864 42.6695 10.4106 42.9414 10.2903C43.2132 10.17 43.5072 10.1079 43.8045 10.1079C44.1017 10.1079 44.3957 10.17 44.6676 10.2903C44.9394 10.4106 45.1831 10.5864 45.3831 10.8063C45.583 11.0263 45.7348 11.2857 45.8286 11.5677C45.9225 11.8498 45.9563 12.1484 45.928 12.4443C45.9569 12.7405 45.9234 13.0395 45.8298 13.322C45.7362 13.6045 45.5846 13.8644 45.3846 14.0848C45.1846 14.3052 44.9407 14.4813 44.6686 14.6019C44.3964 14.7224 44.1021 14.7847 43.8045 14.7847C43.5069 14.7847 43.2125 14.7224 42.9404 14.6019C42.6683 14.4813 42.4244 14.3052 42.2244 14.0848C42.0244 13.8644 41.8727 13.6045 41.7791 13.322C41.6855 13.0395 41.6521 12.7405 41.6809 12.4443V12.4443ZM45.0139 12.4443C45.0139 11.4682 44.5755 10.8974 43.8059 10.8974C43.0335 10.8974 42.5989 11.4682 42.5989 12.4443C42.5989 13.4282 43.0335 13.9946 43.8059 13.9946C44.5755 13.9946 45.014 13.4243 45.014 12.4443H45.0139Z" fill="white"/>
    <path d="M51.5732 14.6978H50.6514L49.7207 11.3813H49.6504L48.7236 14.6978H47.8105L46.5693 10.1948H47.4707L48.2773 13.6308H48.3438L49.2695 10.1948H50.1221L51.0479 13.6308H51.1182L51.9209 10.1948H52.8096L51.5732 14.6978Z" fill="white"/>
    <path d="M53.8535 10.1949H54.709V10.9102H54.7754C54.888 10.6533 55.0781 10.4379 55.3189 10.2941C55.5598 10.1503 55.8395 10.0852 56.1191 10.1079C56.3382 10.0915 56.5582 10.1245 56.7628 10.2046C56.9674 10.2847 57.1514 10.4098 57.3011 10.5707C57.4508 10.7315 57.5623 10.924 57.6275 11.1338C57.6927 11.3436 57.7099 11.5654 57.6777 11.7827V14.6977H56.7891V12.0059C56.7891 11.2823 56.4746 10.9224 55.8174 10.9224C55.6686 10.9155 55.5201 10.9408 55.3821 10.9966C55.244 11.0525 55.1197 11.1375 55.0175 11.2459C54.9154 11.3543 54.8379 11.4834 54.7904 11.6246C54.7429 11.7657 54.7264 11.9154 54.7422 12.0635V14.6978H53.8535L53.8535 10.1949Z" fill="white"/>
    <path d="M59.0938 8.43701H59.9824V14.6978H59.0938V8.43701Z" fill="white"/>
    <path d="M61.218 12.4444C61.1897 12.1484 61.2236 11.8499 61.3175 11.5678C61.4113 11.2857 61.5631 11.0263 61.7631 10.8064C61.963 10.5864 62.2068 10.4106 62.4786 10.2903C62.7505 10.17 63.0445 10.1079 63.3418 10.1079C63.6391 10.1079 63.9331 10.17 64.205 10.2903C64.4768 10.4106 64.7206 10.5864 64.9205 10.8064C65.1205 11.0263 65.2723 11.2857 65.3661 11.5678C65.46 11.8499 65.4939 12.1484 65.4656 12.4444C65.4944 12.7406 65.4609 13.0396 65.3673 13.3221C65.2737 13.6046 65.122 13.8645 64.922 14.0849C64.722 14.3053 64.478 14.4814 64.2059 14.6019C63.9338 14.7225 63.6394 14.7847 63.3418 14.7847C63.0442 14.7847 62.7498 14.7225 62.4777 14.6019C62.2056 14.4814 61.9617 14.3053 61.7616 14.0849C61.5616 13.8645 61.4099 13.6046 61.3163 13.3221C61.2227 13.0396 61.1892 12.7406 61.218 12.4444V12.4444ZM64.551 12.4444C64.551 11.4683 64.1125 10.8975 63.343 10.8975C62.5706 10.8975 62.136 11.4683 62.136 12.4444C62.136 13.4283 62.5706 13.9947 63.343 13.9947C64.1126 13.9947 64.551 13.4244 64.551 12.4444H64.551Z" fill="white"/>
    <path d="M66.4004 13.4243C66.4004 12.6138 67.0039 12.1465 68.0752 12.0801L69.2949 12.0098V11.6211C69.2949 11.1455 68.9805 10.877 68.373 10.877C67.877 10.877 67.5332 11.0591 67.4346 11.3774H66.5742C66.665 10.604 67.3926 10.1079 68.4141 10.1079C69.543 10.1079 70.1797 10.6699 70.1797 11.6211V14.6978H69.3242V14.0649H69.2539C69.1112 14.2919 68.9108 14.477 68.6732 14.6012C68.4355 14.7254 68.1692 14.7843 67.9014 14.7719C67.7123 14.7916 67.5213 14.7714 67.3405 14.7127C67.1598 14.654 66.9933 14.5581 66.8519 14.4311C66.7105 14.3042 66.5972 14.149 66.5195 13.9756C66.4417 13.8021 66.4011 13.6144 66.4004 13.4243V13.4243ZM69.2949 13.0395V12.6631L68.1953 12.7334C67.5752 12.7749 67.2939 12.9858 67.2939 13.3828C67.2939 13.7881 67.6455 14.0239 68.1289 14.0239C68.2706 14.0382 68.4137 14.0239 68.5497 13.9819C68.6857 13.9398 68.8118 13.8707 68.9206 13.7789C69.0294 13.6871 69.1186 13.5743 69.1829 13.4473C69.2472 13.3202 69.2853 13.1816 69.2949 13.0395V13.0395Z" fill="white"/>
    <path d="M71.3477 12.4444C71.3477 11.0215 72.0791 10.1201 73.2168 10.1201C73.4982 10.1072 73.7775 10.1746 74.022 10.3145C74.2666 10.4544 74.4662 10.661 74.5977 10.9101H74.6641V8.43701H75.5527V14.6978H74.7012V13.9863H74.6309C74.4893 14.2338 74.2826 14.4378 74.0334 14.5763C73.7841 14.7148 73.5017 14.7825 73.2168 14.772C72.0713 14.772 71.3477 13.8706 71.3477 12.4444ZM72.2657 12.4444C72.2657 13.3994 72.7159 13.9741 73.4688 13.9741C74.2178 13.9741 74.6807 13.3911 74.6807 12.4483C74.6807 11.5098 74.2129 10.9185 73.4688 10.9185C72.7207 10.9185 72.2656 11.4971 72.2656 12.4444H72.2657Z" fill="white"/>
    <path d="M79.23 12.4443C79.2017 12.1484 79.2355 11.8498 79.3294 11.5677C79.4232 11.2857 79.575 11.0263 79.7749 10.8063C79.9748 10.5864 80.2186 10.4106 80.4904 10.2903C80.7623 10.17 81.0563 10.1079 81.3535 10.1079C81.6508 10.1079 81.9448 10.17 82.2166 10.2903C82.4885 10.4106 82.7322 10.5864 82.9321 10.8063C83.1321 11.0263 83.2838 11.2857 83.3777 11.5677C83.4715 11.8498 83.5054 12.1484 83.4771 12.4443C83.5059 12.7405 83.4725 13.0395 83.3789 13.322C83.2853 13.6045 83.1336 13.8644 82.9336 14.0848C82.7336 14.3052 82.4897 14.4813 82.2176 14.6019C81.9455 14.7224 81.6511 14.7847 81.3535 14.7847C81.0559 14.7847 80.7616 14.7224 80.4894 14.6019C80.2173 14.4813 79.9734 14.3052 79.7734 14.0848C79.5734 13.8644 79.4218 13.6045 79.3282 13.322C79.2346 13.0395 79.2011 12.7405 79.23 12.4443V12.4443ZM82.563 12.4443C82.563 11.4682 82.1245 10.8974 81.355 10.8974C80.5825 10.8974 80.148 11.4682 80.148 12.4443C80.148 13.4282 80.5826 13.9946 81.355 13.9946C82.1245 13.9946 82.563 13.4243 82.563 12.4443Z" fill="white"/>
    <path d="M84.6689 10.1949H85.5244V10.9102H85.5908C85.7035 10.6533 85.8935 10.4379 86.1344 10.2941C86.3752 10.1503 86.655 10.0852 86.9346 10.1079C87.1537 10.0915 87.3737 10.1245 87.5783 10.2046C87.7829 10.2847 87.9668 10.4098 88.1165 10.5707C88.2662 10.7315 88.3778 10.924 88.443 11.1338C88.5082 11.3436 88.5253 11.5654 88.4932 11.7827V14.6977H87.6045V12.0059C87.6045 11.2823 87.2901 10.9224 86.6328 10.9224C86.4841 10.9155 86.3356 10.9408 86.1975 10.9966C86.0594 11.0525 85.9351 11.1375 85.833 11.2459C85.7308 11.3543 85.6534 11.4834 85.6058 11.6246C85.5583 11.7657 85.5419 11.9154 85.5576 12.0635V14.6978H84.6689V10.1949Z" fill="white"/>
    <path d="M93.5146 9.07373V10.2153H94.4902V10.9639H93.5146V13.2793C93.5146 13.751 93.709 13.9575 94.1514 13.9575C94.2646 13.9572 94.3778 13.9503 94.4902 13.937V14.6772C94.3307 14.7058 94.169 14.721 94.0068 14.7226C93.0186 14.7226 92.625 14.375 92.625 13.5068V10.9638H91.9102V10.2153H92.625V9.07373H93.5146Z" fill="white"/>
    <path d="M95.7051 8.43701H96.5859V10.9185H96.6562C96.7744 10.6591 96.9696 10.4425 97.2153 10.2982C97.461 10.1539 97.7452 10.0888 98.0292 10.1118C98.2472 10.1 98.4651 10.1364 98.6674 10.2184C98.8697 10.3004 99.0513 10.4261 99.1995 10.5864C99.3476 10.7468 99.4585 10.9378 99.5243 11.146C99.5901 11.3541 99.6091 11.5742 99.58 11.7905V14.6978H98.6905V12.0098C98.6905 11.2905 98.3555 10.9263 97.7276 10.9263C97.5748 10.9137 97.4212 10.9347 97.2774 10.9878C97.1337 11.0408 97.0032 11.1247 96.8952 11.2334C96.7872 11.3421 96.7043 11.4732 96.6522 11.6173C96.6002 11.7614 96.5802 11.9152 96.5938 12.0679V14.6977H95.7051L95.7051 8.43701Z" fill="white"/>
    <path d="M104.761 13.482C104.641 13.8935 104.379 14.2495 104.022 14.4877C103.666 14.7258 103.236 14.831 102.81 14.7847C102.513 14.7926 102.219 14.7357 101.946 14.6182C101.674 14.5007 101.43 14.3253 101.232 14.1041C101.034 13.883 100.887 13.6214 100.8 13.3376C100.713 13.0538 100.689 12.7545 100.73 12.4605C100.69 12.1656 100.715 11.8657 100.801 11.581C100.888 11.2964 101.034 11.0336 101.231 10.8105C101.428 10.5874 101.671 10.4093 101.942 10.2881C102.214 10.1669 102.509 10.1054 102.806 10.108C104.059 10.108 104.815 10.964 104.815 12.378V12.6881H101.635V12.7379C101.621 12.9031 101.642 13.0695 101.696 13.2262C101.75 13.383 101.837 13.5267 101.95 13.6481C102.062 13.7696 102.2 13.8661 102.352 13.9315C102.504 13.9969 102.669 14.0297 102.834 14.0279C103.047 14.0534 103.262 14.0151 103.453 13.9179C103.644 13.8207 103.801 13.669 103.906 13.482L104.761 13.482ZM101.635 12.0308H103.91C103.921 11.8797 103.9 11.7279 103.849 11.5852C103.798 11.4425 103.718 11.312 103.614 11.2021C103.509 11.0923 103.383 11.0055 103.243 10.9473C103.103 10.8891 102.953 10.8609 102.801 10.8643C102.648 10.8624 102.495 10.8913 102.353 10.9492C102.21 11.0072 102.081 11.093 101.972 11.2017C101.864 11.3104 101.778 11.4398 101.72 11.5822C101.662 11.7246 101.633 11.8771 101.635 12.0308H101.635Z" fill="white"/>
    <rect x="0.5" y="0.5" width="154" height="39" rx="6.5" stroke="white" stroke-opacity="0.2"/>
</svg>
